<svg width="500" height="500" viewBox="0 0 500 500" fill="none" xmlns="http://www.w3.org/2000/svg">
<path d="M371.496 348.478C375.748 348.478 379.105 349.725 381.567 352.22C384.253 354.715 385.596 358.118 385.596 362.427V442.043C385.596 449.755 384.477 455.312 382.239 458.714C380.224 462.117 376.084 464.839 369.817 466.88C360.865 470.509 350.233 473.345 337.924 475.386C325.614 477.428 313.416 478.448 301.33 478.448C277.382 478.448 256.68 473.572 239.222 463.818C221.765 454.065 208.448 440.001 199.272 421.629C190.095 403.256 185.507 381.254 185.507 355.623C185.507 330.445 190.095 308.67 199.272 290.297C208.448 271.924 221.541 257.861 238.551 248.107C255.784 238.127 275.928 233.137 298.98 233.137C314.647 233.137 329.083 235.519 342.288 240.282C355.717 244.818 367.131 251.51 376.531 260.356C381.008 263.985 383.246 268.522 383.246 273.965C383.246 278.048 382.127 281.564 379.889 284.513C377.65 287.235 374.965 288.596 371.831 288.596C369.817 288.596 368.027 288.255 366.46 287.575C364.893 286.895 362.879 285.76 360.417 284.173C349.45 276.007 339.49 270.336 330.538 267.161C321.585 263.758 311.29 262.057 299.652 262.057C274.137 262.057 251.98 268.408 238.551 284.513C225.122 300.391 217.506 325.228 217.506 355.623C217.506 386.698 224.898 410.181 238.551 426.286C252.427 442.164 275.704 450.209 302.338 450.209C320.243 450.209 337.476 447.487 354.038 442.043V375.016H310.059C305.583 375.016 302.002 373.882 299.316 371.614C296.854 369.119 295.623 365.83 295.623 361.747C295.623 357.664 296.854 354.488 299.316 352.22C302.002 349.725 305.583 348.478 310.059 348.478H371.496Z" fill="black"/>
<path fill-rule="evenodd" clip-rule="evenodd" d="M161.902 234.2C154.659 234.2 148.788 240.072 148.788 247.314V327.234V327.411C148.788 334.653 154.659 340.525 161.902 340.525C161.936 340.525 161.97 340.524 162.005 340.524C162.029 340.524 162.054 340.524 162.078 340.524H376.795C384.135 340.524 390.086 334.574 390.086 327.234C390.086 319.894 384.135 313.943 376.795 313.943H175.016V247.314C175.016 240.072 169.144 234.2 161.902 234.2Z" fill="black"/>
<rect x="112.069" y="21.5518" width="26.228" height="318.973" rx="13.114" fill="black"/>
</svg>
